{"title":"Sexy-Schoolgirl-s-Playful-Tongue and fucked[truehdporn].mp4","uid":7524152,"size":119834761,"categoryP":"porn","categoryS":"movie_clips","magnet":"?xt=urn:btih:e997d47533f9ea4bd03108f02537904175703691&amp;dn=Sexy-Schoolgirl-s-Playful-Tongue+and+fucked%5Btruehdporn%5D.mp4&amp;tr=udp%3A%2F%2Ftracker.openbittorrent.com%3A80&amp;tr=udp%3A%2F%2Fopen.demonii.com%3A1337&amp;tr=udp%3A%2F%2Ftracker.coppersurfer.tk%3A6969&amp;tr=udp%3A%2F%2Fexodus.desync.com%3A6969","seeders":0,"leechers":1,"uploader":"hdporn","files":1,"time":1344725814,"description":"Format : MPEG-4\nFormat profile : Base Media\nCodec ID : isom\nFile size : 114 MiB\nDuration : 16mn 59s\nOverall bit rate mode : Variable\nOverall bit rate : 940 Kbps\nWriting application : Lavf53.4.0\n\nVideo\nID : 1\nFormat : AVC\nFormat/Info : Advanced Video Codec\nFormat profile : &lt;a class=&quot;__cf_email__&quot; href=&quot;/cdn-cgi/l/email-protection&quot; data-cfemail=&quot;4e062729260e027d607c&quot;&gt;[email&amp;#160;protected]&lt;/a&gt;&lt;script cf-hash='f9e31' type=&quot;text/javascript&quot;&gt;\n/* &lt;![CDATA[ */!function(){try{var t=&quot;currentScript&quot;in document?document.currentScript:function(){for(var t=document.getElementsByTagName(&quot;script&quot;),e=t.length;e--;)if(t[e].getAttribute(&quot;cf-hash&quot;))return t[e]}();if(t&amp;&amp;t.previousSibling){var e,r,n,i,c=t.previousSibling,a=c.getAttribute(&quot;data-cfemail&quot;);if(a){for(e=&quot;&quot;,r=parseInt(a.substr(0,2),16),n=2;a.length-n;n+=2)i=parseInt(a.substr(n,2),16)^r,e+=String.fromCharCode(i);e=document.createTextNode(e),c.parentNode.replaceChild(e,c)}}}catch(u){}}();/* ]]&gt; */&lt;/script&gt;\nFormat settings, CABAC : Yes\nFormat settings, ReFrames : 16 frames\nCodec ID : avc1\nCodec ID/Info : Advanced Video Coding\nDuration : 16mn 59s\nBit rate mode : Variable\nBit rate : 868 Kbps\nWidth : 720 pixels\nHeight : 408 pixels\nDisplay aspect ratio : 16:9\nFrame rate mode : Constant\nFrame rate : 25.000 fps\nColor space : YUV\nChroma subsampling : 4:2:0\nBit depth : 8 bits\nScan type : Progressive\nBits/(Pixel*Frame) : 0.118\nStream size : 106 MiB (93%)\n\nAudio\nID : 2\nFormat : AAC\nFormat/Info : Advanced Audio Codec\nFormat profile : LC\nCodec ID : 40\nDuration : 16mn 59s\nBit rate mode : Variable\nBit rate : 61.6 Kbps\nMaximum bit rate : 64.0 Kbps\nChannel(s) : 2 channels\nChannel positions : Front: L R\nSampling rate : 44.1 KHz\nCompression mode : Lossy\nDelay relative to video : -2ms\nStream size : 7.50 MiB (7%)\nLanguage : Russian","torrent":{"xt":"urn:btih:e997d47533f9ea4bd03108f02537904175703691","amp;dn":"Sexy-Schoolgirl-s-Playful-Tongue+and+fucked%5Btruehdporn%5D.mp4","amp;tr":["udp%3A%2F%2Ftracker.openbittorrent.com%3A80","udp%3A%2F%2Fopen.demonii.com%3A1337","udp%3A%2F%2Ftracker.coppersurfer.tk%3A6969","udp%3A%2F%2Fexodus.desync.com%3A6969"],"infoHash":"e997d47533f9ea4bd03108f02537904175703691","infoHashBuffer":{"type":"Buffer","data":[233,151,212,117,51,249,234,75,208,49,8,240,37,55,144,65,117,112,54,145]},"announce":[],"urlList":[]}}